<?xml version="1.0" standalone="no"?>
<!DOCTYPE svg PUBLIC "-//W3C//DTD SVG 1.1//EN" "http://www.w3.org/Graphics/SVG/1.1/DTD/svg11.dtd" >
<svg xmlns="http://www.w3.org/2000/svg">
<metadata></metadata>
<defs>
<font id="qanelas_softultralight_italic" horiz-adv-x="1120" >
<font-face units-per-em="2048" ascent="1638" descent="-410" />
<missing-glyph horiz-adv-x="579" />
<glyph horiz-adv-x="0" />
<glyph horiz-adv-x="682" />
<glyph unicode=" "  horiz-adv-x="579" />
<glyph unicode="&#x09;" horiz-adv-x="579" />
<glyph unicode="&#xa0;" horiz-adv-x="579" />
<glyph unicode="!" horiz-adv-x="430" d="M85 22l18 103q3 18 22 18h48q21 0 18 -22l-18 -103q-3 -18 -22 -18h-48q-23 0 -18 22zM159 370l105 654l69 391q3 19 22 19h40q22 0 19 -23l-68 -387l-125 -658q-5 -18 -22 -18h-21q-22 0 -19 22z" />
<glyph unicode="&#x22;" horiz-adv-x="567" d="M226 1100l49 315q3 19 22 19h33q23 0 18 -23l-60 -314q-4 -18 -23 -18h-20q-22 0 -19 21zM485 1100l50 315q3 19 21 19h33q24 0 19 -23l-61 -314q-5 -18 -22 -18h-21q-22 0 -19 21z" />
<glyph unicode="#" horiz-adv-x="1245" d="M94 520l11 31q6 16 21 16h228l103 300h-223q-23 0 -16 22l10 31q5 15 22 15h230l130 381q5 15 21 15h35q23 0 15 -22l-127 -374h360l130 381q5 15 22 15h34q11 0 15.5 -6t0.5 -16l-128 -374h219q22 0 16 -21l-10 -31q-6 -16 -22 -16h-226l-103 -300h221q11 0 15.5 -6 t0.5 -16l-11 -31q-6 -16 -22 -16h-227l-130 -380q-6 -16 -22 -16h-34q-23 0 -15 22l127 374h-360l-130 -380q-6 -16 -22 -16h-34q-11 0 -15.5 6t-0.5 16l128 374h-221q-11 0 -15.5 6t-0.5 16zM428 567h360l103 300h-361z" />
<glyph unicode="$" horiz-adv-x="1126" d="M68 352q1 19 22 19h34q21 0 19 -22q-15 -128 65 -206t239 -91l116 656q-31 13 -55.5 24t-53.5 25t-51.5 28t-47 31.5t-42 36.5t-34 40.5t-26.5 46.5t-16.5 53t-6 60.5t6.5 68.5q27 150 152 238.5t306 94.5l30 169q3 14 18 14h35q18 0 15 -17l-30 -167q155 -13 251.5 -111 t78.5 -244q-1 -19 -22 -19h-34q-21 0 -19 22q12 113 -61.5 191.5t-205.5 89.5l-111 -627q76 -32 119.5 -52.5t103 -59.5t88.5 -79t45 -101.5t3 -134.5q-28 -164 -165 -257t-331 -94l-30 -168q-3 -15 -18 -15h-35q-18 0 -15 18l30 168q-183 16 -285.5 113t-81.5 258z M312 1115q-12 -66 3.5 -119t57.5 -92t88 -66t115 -56l107 602q-149 -7 -250 -81t-121 -188zM515 49q164 1 275.5 80t133.5 207q13 72 -4.5 127t-68 96t-98 66t-126.5 57z" />
<glyph unicode="%" horiz-adv-x="1562" d="M163.5 7.5q-3.5 7.5 5.5 17.5l1221 1397q10 12 25 12h39q14 0 17.5 -8t-5.5 -18l-1224 -1397q-10 -11 -25 -11h-37q-13 0 -16.5 7.5zM250 1156q23 129 126 214t240 85q133 0 208.5 -90.5t52.5 -218.5q-24 -129 -126 -214.5t-240 -85.5q-133 0 -208.5 91t-52.5 219z M321 1151q-18 -102 39 -170.5t161 -68.5q105 0 186 68t99 171q18 102 -39 170.5t-161 68.5t-185.5 -68.5t-99.5 -170.5zM758 288q23 129 126 214t240 85q133 0 208 -91t52 -219q-23 -129 -125.5 -214t-239.5 -85q-133 0 -208.5 91t-52.5 219zM829 283q-17 -102 39.5 -170.5 t160.5 -68.5q106 0 186.5 68t97.5 171q18 102 -39 170.5t-161 68.5t-185 -68.5t-99 -170.5z" />
<glyph unicode="&#x26;" horiz-adv-x="1347" d="M95 391q23 132 113.5 236.5t224.5 170.5q-103 143 -75 300q29 161 160 259t309 98q165 0 268.5 -99t82.5 -257q-1 -19 -22 -19h-34q-21 0 -19 22q14 124 -63 203t-222 79q-150 0 -256 -82t-129 -208q-16 -94 15 -170t104 -161l430 -504q117 138 157 345q3 19 23 19h33 q11 0 16 -3.5t4 -10.5q-46 -242 -187 -403l154 -181q8 -11 5 -18t-16 -7h-44q-15 0 -25 12l-123 144q-192 -178 -485 -178q-131 0 -229.5 52t-145 147t-24.5 214zM170 384q-27 -152 68.5 -243.5t264.5 -91.5q259 0 431 160l-438 510q-14 16 -22 26q-126 -59 -205.5 -154.5 t-98.5 -206.5z" />
<glyph unicode="'" horiz-adv-x="292" d="M226 1100l49 315q3 19 22 19h33q23 0 18 -23l-60 -314q-4 -18 -23 -18h-20q-22 0 -19 21z" />
<glyph unicode="(" horiz-adv-x="483" d="M160 724q83 480 379 901q9 13 24 13h27q13 0 16.5 -7t-3.5 -17q-289 -434 -370 -897q-81 -460 54 -899q7 -23 -17 -23h-30q-19 0 -23 17q-137 452 -57 912z" />
<glyph unicode=")" horiz-adv-x="481" d="M-52.5 -197.5q-3.5 7.5 3.5 17.5q290 436 371 897q80 457 -55 898q-7 23 17 23h31q19 0 23 -17q136 -450 56 -911q-84 -483 -378 -902q-9 -13 -25 -13h-27q-13 0 -16.5 7.5z" />
<glyph unicode="*" horiz-adv-x="782" d="M261 1214l3 22q3 18 23 18l183 -3l-73 154q-9 18 9 27l23 13q20 12 28 -10l66 -156l121 161q12 16 29 5l20 -12q19 -11 5 -29l-126 -153l181 3q22 0 19 -22l-4 -21q-3 -19 -22 -19l-184 3l72 -153q9 -19 -8 -28l-23 -12q-19 -11 -27 9l-67 157l-121 -161q-13 -16 -28 -6 l-21 13q-19 11 -5 28l126 153l-180 -2q-22 0 -19 21z" />
<glyph unicode="+" horiz-adv-x="1079" d="M170 705l5 27q3 19 22 19h349l62 350q3 19 22 19h29q22 0 19 -23l-61 -346h344q22 0 19 -22l-5 -28q-3 -18 -22 -18h-348l-62 -350q-3 -19 -22 -19h-29q-22 0 -19 22l61 347h-345q-22 0 -19 22z" />
<glyph unicode="," horiz-adv-x="432" d="M26 -227l3 13q3 15 17 22q26 14 41.5 45t27.5 92h-8q-21 0 -18 23l28 157q3 18 22 18h47q22 0 19 -22l-32 -176q-14 -80 -44 -125t-81 -63q-11 -4 -17.5 1t-4.5 15z" />
<glyph unicode="-" d="M211 621l4 27q3 19 22 19h696q22 0 19 -22l-5 -28q-3 -18 -22 -18h-696q-21 0 -18 22z" />
<glyph unicode="." horiz-adv-x="403" d="M71 22l18 103q3 18 23 18h47q24 0 19 -22l-19 -103q-3 -18 -22 -18h-48q-21 0 -18 22z" />
<glyph unicode="/" horiz-adv-x="1071" d="M-21 -199q-3 6 2 14l1122 1812q7 11 20 11h29q10 0 13 -5.5t-2 -13.5l-1123 -1813q-7 -11 -19 -11h-29q-10 0 -13 6z" />
<glyph unicode="0" horiz-adv-x="1292" d="M149.5 335q-31.5 166 4.5 390q60 337 232 533.5t424 196.5q163 0 268 -95t136.5 -261t-4.5 -390q-60 -337 -232 -534t-424 -197q-163 0 -268 95.5t-136.5 261.5zM229 717q-55 -313 34.5 -490.5t300.5 -177.5t363.5 177.5t207.5 490.5t-34.5 490t-300.5 177t-363.5 -177.5 t-207.5 -489.5z" />
<glyph unicode="1" horiz-adv-x="661" d="M157 1185l7 41q3 15 17 22l365 180q13 6 25 6h39q22 0 19 -23l-245 -1392q-3 -19 -22 -19h-34q-21 0 -18 22l232 1325l-363 -179q-11 -6 -17.5 -1t-4.5 18z" />
<glyph unicode="2" horiz-adv-x="1081" d="M9 22l6 31q3 15 13 24l616 539q135 118 220 222.5t103 201.5q28 159 -51.5 251.5t-236.5 92.5q-151 0 -265 -87t-145 -233q-5 -18 -22 -18h-34q-23 0 -18 22q26 120 101 209.5t175.5 133.5t213.5 44q87 0 160.5 -29.5t123 -83t70 -134t2.5 -176.5q-35 -196 -349 -467 l-566 -494h760q22 0 19 -22l-5 -30q-3 -19 -23 -19h-849q-22 0 -19 22z" />
<glyph unicode="3" horiz-adv-x="1126" d="M48 393q3 19 22 19h34q21 0 19 -22q-19 -152 73 -246.5t265 -94.5q179 0 307.5 101t157.5 262t-64 261.5t-273 100.5h-31q-21 0 -18 22l2 12q3 16 11 24l449 532h-700q-21 0 -18 22l4 29q3 19 22 19h771q22 0 19 -22l-5 -34q-3 -13 -12 -24l-434 -515q179 -16 280 -134 t70 -300q-23 -130 -102.5 -228t-195 -148.5t-250.5 -50.5q-94 0 -173.5 29.5t-135 82t-81.5 131.5t-13 172z" />
<glyph unicode="4" horiz-adv-x="1153" d="M34 336l5 35q3 15 10 24l723 1026q9 13 25 13h38q13 0 16.5 -7t-3.5 -18l-721 -1025h700l78 444q3 18 22 18h34q22 0 19 -22l-78 -440h162q21 0 18 -22l-4 -29q-3 -19 -22 -19h-166l-52 -295q-3 -19 -22 -19h-34q-21 0 -18 22l51 292h-763q-21 0 -18 22z" />
<glyph unicode="5" horiz-adv-x="1126" d="M68 393q1 19 22 19h34q21 0 19 -22q-19 -152 73 -246.5t265 -94.5q180 0 308 100t157 261q29 162 -62.5 263t-273.5 101h-374q-23 0 -18 23l151 619q5 18 23 18h727q22 0 19 -22l-5 -29q-3 -19 -22 -19h-681l-127 -519h319q95 0 176 -32t136 -88.5t79 -140t7 -181.5 q-23 -130 -102.5 -227.5t-194.5 -147.5t-251 -50q-193 0 -310 114t-94 301z" />
<glyph unicode="6" horiz-adv-x="1114" d="M66 458q31 172 147 293l589 671q10 12 26 12h41q13 0 16.5 -8t-5.5 -18l-460 -524q100 36 208 36q135 0 234.5 -61t143 -170.5t19.5 -246.5q-37 -208 -193 -336t-370 -128q-206 0 -319.5 136t-76.5 344zM139 450q-31 -175 59 -288t276 -113t316.5 113t161.5 288 t-59.5 287t-276.5 112t-316 -112t-161 -287z" />
<glyph unicode="7" horiz-adv-x="1003" d="M181 7q-4 7 2 18l795 1339h-751q-22 0 -19 22l5 29q3 19 22 19h812q22 0 19 -22l-6 -35q-4 -17 -8 -24l-794 -1339q-8 -14 -24 -14h-37q-12 0 -16 7z" />
<glyph unicode="8" horiz-adv-x="1132" d="M72 384q23 133 114.5 226.5t230.5 132.5q-99 45 -147 135t-28 207q30 172 166.5 271t320.5 99q115 0 204 -45.5t133 -134.5t24 -203q-21 -119 -100 -205.5t-195 -128.5q121 -44 179 -141.5t36 -229.5q-33 -184 -178.5 -286.5t-360.5 -102.5q-206 0 -319 111.5t-80 294.5z M147 375q-27 -148 62.5 -237t273.5 -89q186 0 305.5 88.5t146.5 237.5q25 148 -64.5 237.5t-271.5 89.5q-185 0 -306 -89.5t-146 -237.5zM317 1079q-24 -135 57 -220.5t237 -85.5q160 0 269.5 85t133.5 221q23 137 -56.5 221t-237.5 84q-159 0 -269.5 -84t-133.5 -221z" />
<glyph unicode="9" horiz-adv-x="1114" d="M160 993q37 208 193.5 335t370.5 127q135 0 234.5 -61.5t143 -172t19.5 -247.5q-30 -172 -145 -290l-591 -672q-11 -12 -25 -12h-42q-13 0 -16.5 7.5t5.5 17.5l460 524q-102 -36 -210 -36q-135 0 -234.5 61.5t-143 171.5t-19.5 247zM233 984q-31 -175 59.5 -287.5 t276.5 -112.5t316.5 112.5t161.5 287.5t-59.5 287.5t-276.5 112.5t-316.5 -112.5t-161.5 -287.5z" />
<glyph unicode=":" horiz-adv-x="403" d="M71 22l18 103q3 18 23 18h47q24 0 19 -22l-19 -103q-3 -18 -22 -18h-48q-21 0 -18 22zM227 903l18 102q3 19 22 19h48q23 0 18 -22l-18 -103q-3 -18 -22 -18h-48q-21 0 -18 22z" />
<glyph unicode=";" horiz-adv-x="432" d="M26 -227l3 13q3 15 17 22q26 14 41.5 45t27.5 92h-8q-21 0 -18 23l28 157q3 18 22 18h47q22 0 19 -22l-32 -176q-14 -80 -44 -125t-81 -63q-11 -4 -17.5 1t-4.5 15zM254 903l19 103q3 18 22 18h47q24 0 19 -22l-19 -103q-3 -18 -22 -18h-48q-23 0 -18 22z" />
<glyph unicode="&#x3c;" horiz-adv-x="1091" d="M170 698l6 39q3 16 18 22l842 352q11 5 17.5 -0.5t4.5 -17.5l-7 -37q-3 -16 -18 -22l-778 -321l661 -320q16 -7 13 -26l-6 -32q-3 -23 -25 -13l-715 351q-16 7 -13 25z" />
<glyph unicode="=" horiz-adv-x="1091" d="M134 500l6 28q3 18 22 18h778q23 0 18 -22l-5 -28q-3 -18 -23 -18h-777q-24 0 -19 22zM207 910l5 27q3 19 22 19h778q21 0 18 -22l-4 -28q-3 -19 -22 -19h-778q-22 0 -19 23z" />
<glyph unicode="&#x3e;" horiz-adv-x="1091" d="M107 340l6 37q3 16 17 22l781 322l-663 320q-16 7 -13 25l6 33q5 23 26 13l714 -351q16 -7 13 -26l-6 -39q-3 -15 -18 -21l-841 -353q-11 -5 -17.5 0.5t-4.5 17.5z" />
<glyph unicode="?" horiz-adv-x="1081" d="M200 1103q37 158 180 255t323 97q176 0 275.5 -99t69.5 -266q-10 -60 -42 -116.5t-75.5 -103t-94.5 -91.5t-102.5 -90.5t-96.5 -93t-80 -106.5t-49 -123q-4 -18 -22 -18h-34q-11 0 -16 6.5t-2 16.5q15 70 51 134t81 113.5t97 96.5t102.5 91t93.5 87.5t73.5 96t40.5 107.5 q24 133 -50.5 210t-233.5 77q-151 0 -268.5 -81t-146.5 -205q-4 -18 -22 -18h-34q-11 0 -16 6.5t-2 16.5zM365 22l19 103q3 18 22 18h47q22 0 19 -22l-19 -103q-3 -18 -22 -18h-47q-24 0 -19 22z" />
<glyph unicode="@" horiz-adv-x="1683" d="M111 522q36 203 161.5 370t314 264t399.5 97q94 0 177 -21.5t146.5 -59.5t116 -90.5t85.5 -115t54.5 -132.5t22.5 -142.5t-9 -145.5q-20 -113 -58 -196t-87 -129t-100 -67.5t-105 -21.5q-89 0 -131.5 53.5t-34.5 142.5q-52 -67 -128 -105.5t-164 -38.5q-139 0 -219 97.5 t-55 235.5q25 139 133.5 231t254.5 92q85 0 148 -42.5t92 -114.5l22 124q3 18 22 18h28q22 0 19 -22l-79 -447q-14 -81 11 -128.5t97 -47.5q101 0 177.5 95.5t108.5 277.5q32 183 -28.5 333.5t-198.5 237t-325 86.5q-194 0 -370 -90.5t-296.5 -250.5t-154.5 -354 q-35 -198 31.5 -358.5t219 -251.5t360.5 -91q192 0 341 50q16 5 16 -11l1 -15q0 -12 -8 -15q-158 -52 -358 -52q-164 0 -299.5 57.5t-221.5 156.5t-121.5 238.5t-7.5 298.5zM567 512q-20 -113 42.5 -187.5t175.5 -74.5q108 0 195.5 70.5t111.5 178.5l5 25 q15 109 -47.5 179.5t-171.5 70.5q-113 0 -202 -74.5t-109 -187.5z" />
<glyph unicode="A" horiz-adv-x="1288" d="M-37 7q-2 3 -2 6q0 5 4 11l792 1395q9 15 24 15h48q18 0 23 -19l300 -1393q1 -4 1 -7q0 -15 -20 -15h-34q-20 0 -23 18l-76 360h-753l-206 -364q-8 -14 -25 -14h-37q-12 0 -16 7zM286 448h699l-190 898z" />
<glyph unicode="B" horiz-adv-x="1396" d="M105 22l245 1393q3 19 22 19h56h457q157 0 241 -97q64 -75 63 -171q0 -29 -5 -59q-21 -111 -107 -194q131 -51 195 -175q45 -87 45 -189q0 -43 -8 -89q-36 -194 -183.5 -327t-350.5 -133h-640h-11q-22 0 -19 22zM188 70h592q166 0 296 116.5t160 284.5q7 42 7 81 q1 117 -65 204q-88 116 -254 116h-595zM342 942h573q43 0 88 -8q89 71 107 179q4 25 4 48q0 75 -46 131q-62 72 -181 72h-471z" />
<glyph unicode="C" horiz-adv-x="1583" d="M147 726q36 203 157.5 369t307 263t398.5 97q215 0 377 -117.5t203 -304.5q1 -4 1 -7q0 -16 -20 -16h-38q-17 0 -22 18q-41 161 -178 258.5t-329 97.5t-361.5 -89.5t-280 -242t-142.5 -335.5q-12 -67 -12 -129q0 -108 36 -206q58 -152 196 -242.5t329 -90.5t364 99 t270 261q8 14 24 14h38q12 0 17 -6.5t-1 -16.5q-109 -190 -304.5 -306t-421.5 -116q-156 0 -284 60t-207.5 161t-111.5 239q-17 75 -17 153q0 66 12 135z" />
<glyph unicode="D" horiz-adv-x="1544" d="M105 22l245 1393q3 19 22 19h56h492q142 0 258 -59t188 -157q72 -100 100 -234q15 -70 15 -143q0 -67 -12 -137q-26 -147 -98 -276.5t-175.5 -224t-240.5 -149t-287 -54.5h-533h-11q-22 0 -19 22zM188 70h492q131 0 252.5 51t215 137.5t158.5 205t89 251.5q10 69 10 134 q0 37 -3 71q-9 96 -49.5 177.5t-101.5 141t-149.5 92.5t-193.5 33h-492z" />
<glyph unicode="E" horiz-adv-x="1064" d="M105 22l245 1393q3 19 22 19h56h670q19 0 19 -18v-5l-5 -29q-3 -18 -22 -18h-674l-107 -606h620q22 0 19 -23l-6 -28q-3 -19 -21 -19h-624l-109 -618h681q22 0 19 -23l-6 -28q-3 -19 -21 -19h-726h-11q-22 0 -19 22z" />
<glyph unicode="F" horiz-adv-x="1040" d="M105 22l245 1393q3 19 22 19h56h671q18 0 18 -17v-5l-5 -29q-3 -19 -22 -19h-674l-116 -659h654q24 0 19 -23l-6 -29q-3 -18 -22 -18h-657l-109 -616q-3 -19 -22 -19h-33q-22 0 -19 22z" />
<glyph unicode="G" horiz-adv-x="1656" d="M139 541q-3 32 -3 65q0 65 13 133q36 203 157 366t306 256.5t400 93.5q218 0 375 -119t197 -304q3 -22 -19 -22h-34q-17 0 -22 19q-40 160 -177.5 257.5t-328.5 97.5t-358.5 -86t-278 -235t-142.5 -332q-11 -69 -11 -134q0 -40 5 -79q10 -101 56 -186.5t115.5 -148.5 t170 -98.5t220.5 -35.5q143 0 272.5 47.5t232.5 150.5t143 247l23 127h-537q-21 0 -18 22l4 29q3 18 22 18h582h12q21 0 18 -22l-114 -650q-3 -18 -22 -18h-34q-21 0 -18 22l45 261q-99 -150 -266 -227.5t-357 -77.5q-109 0 -205.5 28t-169 78.5t-129 121t-86 155 t-39.5 180.5z" />
<glyph unicode="H" horiz-adv-x="1304" d="M105 22l245 1393q3 19 22 19h34q21 0 18 -23l-112 -639h771l113 643q3 19 22 19h34q19 0 19 -18v-5l-245 -1392q-3 -19 -22 -19h-34q-22 0 -19 22l120 680h-771l-121 -683q-3 -19 -22 -19h-33q-22 0 -19 22z" />
<glyph unicode="I" horiz-adv-x="456" d="M105 22l245 1393q3 19 22 19h34q18 0 18 -18v-5l-245 -1392q-3 -19 -22 -19h-33q-22 0 -19 22z" />
<glyph unicode="J" horiz-adv-x="1099" d="M46 375q3 20 21 20h34q22 0 19 -23q-4 -31 -4 -60q0 -107 62 -176q80 -87 238 -87q159 0 273 90.5t142 241.5l181 1034q3 19 22 19h34q18 0 18 -18v-5l-180 -1031q-34 -190 -173 -296t-325 -106q-85 0 -156.5 26.5t-122.5 75.5t-73 126q-15 48 -15 103q0 32 5 66z" />
<glyph unicode="K" horiz-adv-x="1153" d="M105 22l245 1393q3 19 22 19h34q21 0 18 -23l-115 -655l852 669q10 9 25 9h52q14 0 17 -8q1 -2 1 -4q0 -7 -9 -14l-858 -678l633 -705q8 -10 4.5 -17.5t-16.5 -7.5h-42q-14 0 -25 12l-640 709l-124 -702q-3 -19 -22 -19h-33q-22 0 -19 22z" />
<glyph unicode="L" horiz-adv-x="1017" d="M105 22l245 1393q3 19 22 19h34q21 0 18 -23l-236 -1341h674q19 0 19 -18v-5l-5 -28q-3 -19 -22 -19h-719h-11q-22 0 -19 22z" />
<glyph unicode="M" horiz-adv-x="1665" d="M105 22l245 1393q3 19 22 19h34h18q17 0 23 -17l351 -1067l727 1070q9 14 25 14h41h23q18 0 18 -18v-5l-244 -1392q-3 -19 -22 -19h-34q-22 0 -19 22l227 1293l-707 -1040q-9 -14 -24 -14h-39q-17 0 -23 17l-340 1037l-228 -1296q-3 -19 -22 -19h-33q-22 0 -19 22z" />
<glyph unicode="N" horiz-adv-x="1290" d="M105 22l245 1393q3 19 22 19h28q17 0 24 -16l535 -1275l224 1272q3 19 22 19h33q19 0 19 -18v-5l-245 -1392q-3 -19 -22 -19h-28q-17 0 -24 16l-535 1274l-224 -1271q-3 -19 -22 -19h-33q-22 0 -19 22z" />
<glyph unicode="O" horiz-adv-x="1697" d="M147 728q35 201 161.5 368t312 263t389.5 96q150 0 277.5 -60.5t209.5 -162.5q81 -102 117 -241q20 -79 21 -161q0 -63 -12 -128q-35 -201 -161.5 -367t-312.5 -261.5t-391 -95.5q-151 0 -278 60t-208 162q-82 102 -117 240q-20 78 -20 160q0 63 12 128zM222 717 q-11 -60 -11 -118q0 -71 17 -141q30 -124 103 -213.5t187 -142.5t251 -53q184 0 352 88.5t281 241t146 334.5q11 60 11 117q1 73 -17 143q-30 124 -103.5 214t-188 143.5t-251.5 53.5q-183 0 -351 -89.5t-281 -242.5t-145 -335z" />
<glyph unicode="P" horiz-adv-x="1173" d="M105 22l245 1393q3 19 22 19h56h395q81 0 152.5 -35t118.5 -93q48 -58 68 -137q12 -46 11 -93q0 -35 -6 -70q-30 -172 -171 -288.5t-319 -116.5h-395l-103 -582q-3 -19 -22 -19h-33q-22 0 -19 22zM294 670h395q143 0 261 102t143 245q6 34 6 66q-1 101 -63 179 q-82 102 -224 102h-396z" />
<glyph unicode="Q" horiz-adv-x="1708" d="M147 728q35 201 161.5 368t312 263t389.5 96q150 0 277.5 -60.5t209.5 -162.5t117 -241q21 -79 21 -161q0 -63 -12 -128q-28 -159 -115 -298.5t-217 -239.5l127 -180q12 -17 -5 -29l-24 -17q-7 -5 -13 -5q-9 0 -16 10l-127 181q-222 -146 -475 -146q-151 0 -278 60 t-208.5 161.5t-116.5 240.5q-20 78 -20 160q0 63 12 128zM222 717q-11 -60 -11 -118q0 -73 17 -141q30 -124 103 -213.5t187 -142.5t251 -53q225 0 424 132l-148 211q-12 17 4 29l24 17q17 12 29 -5l148 -210q116 92 194 219t104 271q11 60 11 117q0 74 -17 143 q-31 124 -104 214t-187.5 143.5t-251.5 53.5q-183 0 -351 -89.5t-281 -242.5t-145 -335z" />
<glyph unicode="R" horiz-adv-x="1275" d="M105 22l245 1393q3 19 22 19h56h396q82 0 153 -35t117.5 -93t66.5 -137q11 -45 11 -92q0 -35 -6 -71q-26 -152 -143.5 -264t-272.5 -136l412 -581q5 -7 5 -13q1 -3 -1 -5q-4 -7 -17 -7h-41q-16 0 -25 13l-415 588h-386l-103 -582q-3 -19 -22 -19h-33q-22 0 -19 22z M294 670h396q142 0 260.5 102t143.5 245q6 34 6 66q0 102 -64 179q-84 102 -224 102h-396z" />
<glyph unicode="S" horiz-adv-x="1128" d="M70 359q1 19 21 19h35q21 0 19 -22q-3 -22 -3 -42q0 -114 82 -183q96 -82 282 -82q165 0 281.5 83.5t138.5 213.5q6 32 6 60q0 36 -10 66q-16 54 -73.5 95.5t-97 61t-130.5 56.5q-6 3 -9 4q-11 4 -32 13q-96 39 -144.5 63.5t-111.5 72.5t-83 114q-11 37 -11 81q0 35 7 75 q28 156 164 251.5t322 95.5q107 0 195 -43.5t136 -126.5q38 -65 39 -143q0 -21 -3 -43q-1 -19 -22 -19h-34q-22 0 -20 22q2 18 2 35q0 99 -71 167q-83 80 -233 80q-158 0 -268 -82.5t-132 -203.5q-5 -30 -5 -57q0 -37 9 -67q16 -52 73.5 -93.5t95 -59.5t130.5 -56l21 -9 q158 -66 216 -102q145 -90 155 -227q1 -10 1 -21q0 -33 -7 -69q-29 -165 -171 -262t-336 -97q-208 0 -328 102q-100 85 -100 223q0 27 4 56z" />
<glyph unicode="T" horiz-adv-x="1024" d="M208 1386l5 29q3 19 22 19h476h398q18 0 18 -17v-5l-4 -29q-3 -19 -22 -19h-402l-236 -1345q-3 -19 -22 -19h-34q-22 0 -19 22l236 1342h-397q-22 0 -19 22z" />
<glyph unicode="U" horiz-adv-x="1284" d="M152 401l177 1014q3 19 22 19h34q22 0 19 -23l-177 -1010q-7 -41 -7 -77q0 -112 67 -182q89 -93 273 -93t306.5 95t151.5 257l177 1014q3 19 22 19h34q18 0 18 -18v-5l-176 -1010q-36 -204 -184 -313.5t-359 -109.5q-204 0 -318 115q-88 89 -88 224q0 40 8 84z" />
<glyph unicode="V" horiz-adv-x="1230" d="M200 1411q-1 4 -1 7q0 16 20 16h33q19 0 22 -19l263 -1326l731 1330q8 15 24 15h39q13 0 17 -7q2 -3 1 -7q0 -5 -3 -11l-771 -1395q-7 -14 -25 -14h-47q-19 0 -22 18z" />
<glyph unicode="W" horiz-adv-x="1761" d="M213 1412q-3 22 19 22h29q19 0 22 -19l196 -1336l443 888l-65 445q-3 22 19 22h29q19 0 22 -19l197 -1336l667 1340q7 15 24 15h33q12 0 16 -7q2 -3 2 -7q0 -5 -3 -11l-694 -1394q-7 -15 -24 -15h-62q-19 0 -22 19l-121 827l-415 -831q-7 -15 -24 -15h-63q-18 0 -21 19z " />
<glyph unicode="X" horiz-adv-x="1153" d="M-20 7q-1 2 -1 5q0 6 6 13l590 714l-325 670q-5 11 -0.5 18t16.5 7h32q16 0 24 -16l301 -621l518 625q11 12 25 12h40q12 0 16 -7q1 -2 2 -5q0 -6 -6 -13l-562 -680l342 -705q5 -10 0.5 -17t-16.5 -7h-32q-16 0 -24 15l-318 656l-546 -659q-10 -12 -25 -12h-40 q-13 0 -17 7z" />
<glyph unicode="Y" horiz-adv-x="1157" d="M207 1427q4 7 16 7h34q17 0 24 -15l332 -680l575 683q10 12 25 12h39q13 0 16 -8q2 -2 2 -5q0 -6 -6 -13l-620 -736l-115 -653q-3 -19 -22 -19h-34q-22 0 -19 22l115 651l-361 736q-3 6 -3 11q0 4 2 7z" />
<glyph unicode="Z" horiz-adv-x="1050" d="M9 22l6 34q3 13 11 24l994 1284h-731q-22 0 -19 22l5 29q3 19 22 19h798q22 0 19 -22l-6 -35q-3 -15 -10 -24l-994 -1283h772q22 0 19 -23l-6 -28q-3 -19 -22 -19h-839q-22 0 -19 22z" />
<glyph unicode="[" horiz-adv-x="532" d="M13 -183l319 1803q3 18 22 18h54h287q22 0 19 -22l-5 -29q-3 -18 -22 -18h-292l-301 -1704h289q23 0 18 -22l-6 -29q-3 -19 -22 -19h-322h-19q-22 0 -19 22z" />
<glyph unicode="\" horiz-adv-x="1071" d="M299 1620q-5 18 14 18h25q14 0 19 -14l487 -1810q5 -19 -14 -19h-25q-13 0 -18 14z" />
<glyph unicode="]" horiz-adv-x="532" d="M-109 -182l6 29q3 18 22 18h290l301 1704h-287q-22 0 -19 22l5 29q3 18 22 18h323h18q22 0 19 -22l-319 -1802q-3 -19 -22 -19h-53h-288q-23 0 -18 23z" />
<glyph unicode="^" horiz-adv-x="1032" d="M190.5 826.5q-3.5 7.5 4.5 17.5l437 577q10 13 25 13h36q18 0 24 -16l236 -575q4 -10 -0.5 -17t-15.5 -7h-34q-17 0 -23 16l-212 516l-394 -519q-10 -13 -25 -13h-42q-13 0 -16.5 7.5z" />
<glyph unicode="_" horiz-adv-x="1009" d="M-50 -235l4 27q3 19 23 19h805q21 0 18 -22l-4 -28q-3 -18 -22 -18h-805q-22 0 -19 22z" />
<glyph unicode="`" horiz-adv-x="331" d="M213 1413q-4 -7 2 -18l116 -213q9 -15 25 -15h22q12 0 16.5 6.5t-0.5 17.5l-104 214q-7 15 -24 15h-37q-12 0 -16 -7z" />
<glyph unicode="a" horiz-adv-x="1024" d="M65 302q26 148 146.5 228t275.5 80q111 0 193.5 -41.5t117.5 -118.5l40 229q7 39 7 72q-1 91 -51 149q-68 78 -200 78q-124 0 -217 -63t-119 -175q-4 -18 -22 -18h-31q-11 0 -16 6.5t-2 16.5q32 135 145.5 218t273.5 83q155 0 245 -99q68 -74 68 -188q0 -38 -8 -80 l-117 -660q-3 -19 -22 -19h-31q-21 0 -18 22l18 104q-112 -148 -361 -148q-99 0 -176 36q-76 36 -116 112q-28 53 -28 119q0 27 5 57zM137 296q-4 -25 -4 -47q1 -81 55 -135q70 -70 210 -69q141 0 243.5 60t127.5 181l3 16q3 19 3 37q0 40 -14 73q-20 48 -61.5 75.5 t-95.5 41.5t-118 14q-141 0 -235 -67.5t-114 -179.5z" />
<glyph unicode="b" horiz-adv-x="1337" d="M84 22l245 1393q3 19 22 19h31q22 0 19 -23l-112 -636q82 127 213.5 199t288.5 72q142 0 254.5 -74.5t166.5 -202.5q36 -86 37 -182q0 -46 -9 -94q-40 -227 -210.5 -371t-400.5 -144q-155 0 -268.5 89t-154.5 233l-50 -281q-3 -19 -22 -19h-31q-22 0 -19 22zM246 526 q-8 -43 -8 -85q0 -81 30 -154q45 -111 143.5 -176t226.5 -65q197 0 345.5 129.5t183.5 326.5q8 43 8 85q0 81 -30 153q-45 110 -143.5 174t-226.5 64q-195 0 -344.5 -128t-184.5 -324z" />
<glyph unicode="c" horiz-adv-x="1185" d="M98 524q40 226 217 374t408 148q162 0 277 -83t142 -217q1 -4 1 -7q0 -15 -20 -15h-33q-17 0 -23 17q-28 109 -120.5 173t-231.5 64q-199 0 -354 -133t-190 -330q-8 -47 -8 -91q0 -78 25 -146q40 -108 135.5 -170t226.5 -62q137 0 255.5 65.5t184.5 174.5q8 14 24 14h32 q12 0 16.5 -7t-1.5 -17q-75 -139 -214 -218.5t-309 -79.5q-149 0 -259.5 73t-158.5 199q-31 81 -31 172q0 50 9 102z" />
<glyph unicode="d" horiz-adv-x="1339" d="M100 537q27 154 115.5 271t214 177.5t268.5 60.5q155 0 274 -87.5t161 -232.5l121 689q3 19 22 19h31q19 0 19 -18v-5l-245 -1392q-3 -19 -22 -19h-31q-21 0 -18 22l38 220q-81 -124 -211 -194t-287 -70q-143 0 -256 76q-112 76 -166 206q-36 87 -37 182q0 47 9 95z M172 529q-8 -43 -8 -85q0 -80 30 -154q45 -112 144 -178t227 -66q188 0 334.5 118t188.5 303l9 53q4 33 4 64q-1 152 -99 262q-118 132 -305 132q-125 0 -235.5 -54.5t-188.5 -157.5t-101 -237z" />
<glyph unicode="e" horiz-adv-x="1179" d="M97 522q40 229 206 376.5t395 147.5q88 0 163 -29t125 -79.5t84 -119t40 -146.5q2 -28 3 -56q0 -52 -8 -108q-1 -3 -2 -8.5t-2 -8.5q-5 -18 -22 -18h-52h-864q-3 -31 -3 -60q0 -150 86 -249q102 -118 288 -118q130 0 238 57.5t167 152.5q9 14 25 14h35q12 0 17 -6.5 t0 -15.5q-71 -125 -201.5 -197.5t-292.5 -72.5q-146 0 -253 71t-153 196q-29 79 -29 168q0 53 10 109zM174 541h864q4 37 4 71q0 150 -80 247q-98 119 -271 119q-190 0 -332.5 -121.5t-184.5 -315.5z" />
<glyph unicode="f" horiz-adv-x="610" d="M123 978l5 27q3 19 22 19h162l12 68q32 183 140 278q101 88 262 88q14 0 28 -1q18 0 18 -18v-5l-5 -28q-3 -18 -22 -18q-12 1 -24 1q-131 0 -211 -71q-86 -76 -113 -226l-12 -68h292q22 0 19 -22l-5 -28q-3 -18 -22 -18h-296l-166 -937q-3 -19 -22 -19h-31q-21 0 -18 22 l164 934h-158q-22 0 -19 22z" />
<glyph unicode="g" horiz-adv-x="1353" d="M86 -89q0 20 21 20h32q20 0 20 -20v-11q0 -44 21 -88q23 -48 67.5 -87t116 -63.5t157.5 -24.5q207 0 340.5 112.5t167.5 306.5l34 188q-81 -125 -211 -195.5t-288 -70.5q-107 0 -200 45.5t-154.5 120.5t-88.5 178q-16 61 -16 125q0 44 8 90q27 154 115.5 271t214 177.5 t268.5 60.5q156 0 275.5 -88t160.5 -234l50 281q3 19 22 19h31q22 0 19 -22l-167 -946q-40 -231 -197.5 -359t-392.5 -128q-190 0 -312 102q-114 96 -114 223v17zM186 529q-8 -43 -8 -85q0 -81 30 -154q45 -112 144 -178t227 -66q195 0 344.5 126.5t183.5 321.5q8 45 8 87 q0 85 -32 160q-48 112 -147 174.5t-225 62.5q-125 0 -235.5 -54.5t-188.5 -157.5t-101 -237z" />
<glyph unicode="h" horiz-adv-x="1083" d="M84 22l245 1393q3 19 22 19h31q22 0 19 -23l-103 -584q73 112 178 165.5t218 53.5q140 0 224 -98q61 -72 62 -182q0 -39 -8 -83l-117 -664q-3 -19 -22 -19h-31q-21 0 -18 22l116 661q7 39 7 74q-1 87 -45 143q-62 78 -187 78q-141 0 -261 -101t-156 -280l-102 -578 q-3 -19 -22 -19h-31q-22 0 -19 22z" />
<glyph unicode="i" horiz-adv-x="413" d="M84 22l174 983q3 19 22 19h31q21 0 18 -22l-173 -983q-3 -19 -22 -19h-31q-22 0 -19 22zM301 1251l28 164q3 19 22 19h31q19 0 19 -18v-5l-28 -164q-3 -18 -22 -18h-31q-22 0 -19 22z" />
<glyph unicode="j" horiz-adv-x="442" d="M-203 -410l4 28q3 19 23 17q13 -1 26 -1q196 0 233 216l203 1155q3 19 22 19h31q22 0 19 -22l-203 -1152q-50 -284 -307 -284q-16 0 -33 1q-21 2 -18 23zM330 1251l28 164q3 19 22 19h31q22 0 19 -22l-28 -165q-3 -18 -22 -18h-31q-22 0 -19 22z" />
<glyph unicode="k" horiz-adv-x="966" d="M84 22l245 1393q3 19 22 19h31q22 0 19 -23l-151 -857l622 461q12 9 26 9h49q14 0 17 -8q1 -2 1 -3q0 -6 -9 -14l-634 -469l477 -505q9 -10 5.5 -17.5t-16.5 -7.5h-41q-15 0 -25 11l-478 506l-88 -498q-3 -19 -22 -19h-31q-22 0 -19 22z" />
<glyph unicode="l" horiz-adv-x="413" d="M84 22l111 620l142 814q3 19 22 19h32q18 0 18 -18v-5l-142 -810l-111 -623q-3 -19 -22 -19h-31q-22 0 -19 22z" />
<glyph unicode="m" horiz-adv-x="1609" d="M84 22l174 983q3 19 22 19h31q21 0 18 -22l-25 -142q66 97 155 141.5t180 44.5q98 0 169 -54t85 -158q45 75 108 124.5t123 68.5t124 19q61 0 112 -20t89.5 -62t52.5 -107q7 -32 6 -69q0 -39 -7 -84l-120 -685q-3 -19 -22 -19h-31q-22 0 -19 22l120 682q7 41 7 76 q0 81 -38 129q-55 69 -165 69q-53 0 -107 -20.5t-104 -61t-89 -108.5t-57 -155l-108 -614q-3 -19 -22 -19h-31q-21 0 -18 22l119 682q7 42 7 77q1 80 -37 128q-54 69 -165 69q-53 0 -107 -20.5t-103.5 -60.5t-88.5 -107t-57 -152l-109 -619q-3 -19 -22 -19h-31q-22 0 -19 22 z" />
<glyph unicode="n" horiz-adv-x="1083" d="M84 22l174 983q3 19 22 19h31q21 0 18 -22l-30 -174q73 112 177 165t216 53q144 0 227 -97q61 -71 61 -181q0 -40 -8 -85l-117 -664q-3 -19 -22 -19h-31q-21 0 -18 22l116 661q7 40 7 75q-1 86 -45 142q-62 78 -187 78q-140 0 -259 -99.5t-157 -277.5l-103 -582 q-3 -19 -22 -19h-31q-22 0 -19 22z" />
<glyph unicode="o" horiz-adv-x="1263" d="M98 521q27 154 122.5 275.5t228 185.5t277.5 64q142 0 252 -69t162 -195q35 -83 35 -177q0 -49 -9 -101q-20 -117 -80 -216.5t-144.5 -167t-187.5 -105t-211 -37.5q-106 0 -197.5 41t-153.5 111.5t-88 172.5q-15 58 -15 120q0 48 9 98zM170 512q-8 -48 -9 -92 q1 -142 87 -243q112 -131 299 -131h3q126 0 241.5 58.5t197.5 166.5t105 243q8 48 8 92q0 140 -85 240q-112 132 -302 132q-192 -1 -350.5 -132.5t-194.5 -333.5z" />
<glyph unicode="p" horiz-adv-x="1337" d="M13 -387l245 1392q3 19 22 19h31q21 0 18 -22l-39 -226q82 126 213 198t288 72q142 0 254.5 -74.5t166.5 -202.5q36 -86 36 -182q0 -46 -8 -94q-40 -227 -210.5 -371t-400.5 -144q-155 0 -268.5 88.5t-154.5 232.5l-121 -690q-3 -19 -23 -19h-31q-18 0 -18 18v5zM246 526 q-8 -43 -8 -85q0 -81 30 -154q45 -111 143.5 -176t226.5 -65q197 0 345.5 129.5t183.5 326.5q8 43 8 85q0 80 -30 153q-45 110 -143 174t-226 64t-241.5 -58t-189.5 -161.5t-99 -232.5z" />
<glyph unicode="q" horiz-adv-x="1339" d="M100 537q27 154 115.5 271t214 177.5t268.5 60.5q156 0 275.5 -88t160.5 -234l49 281q3 19 22 19h31q22 0 19 -22l-245 -1393q-3 -19 -22 -19h-31q-22 0 -19 23l112 632q-81 -125 -211.5 -196t-288.5 -71q-143 0 -256 76t-166 206q-37 87 -37 182q0 47 9 95zM172 529 q-8 -43 -8 -85q0 -81 30 -154q45 -112 144 -178t227 -66q195 0 344.5 126.5t183.5 321.5q8 45 8 87q0 85 -32 160q-48 112 -147 174.5t-225 62.5q-125 0 -235.5 -54.5t-188.5 -157.5t-101 -237z" />
<glyph unicode="r" horiz-adv-x="659" d="M85 22l173 983q3 19 22 19h31q21 0 18 -22l-32 -186q68 111 168 165.5t209 56.5q19 0 19 -15q0 -3 -1 -7l-5 -28q-3 -19 -16 -19q-148 -4 -266 -108t-152 -292v1l-97 -551q-3 -19 -22 -19h-31q-18 0 -18 17v5z" />
<glyph unicode="s" horiz-adv-x="956" d="M60 251q1 19 22 19h32q21 0 19 -22q-1 -10 -1 -19q0 -81 65 -129q72 -54 198 -54q134 0 226.5 54.5t109.5 152.5q3 19 3 36q0 29 -10 54q-16 39 -49 63t-79 42t-98 32t-103.5 29t-96.5 37t-77.5 51.5t-46.5 76.5q-8 26 -8 57q0 24 5 51q22 121 129.5 192.5t266.5 71.5 q148 0 232 -76q72 -66 72 -164q0 -16 -2 -33q-1 -19 -22 -19h-32q-19 0 -19 22q1 11 1 22q0 78 -58 126q-66 54 -179 54q-124 0 -211 -54t-105 -152q-3 -18 -3 -34q1 -42 21 -72q28 -44 81.5 -67.5t119.5 -42t132 -39.5t118 -51.5t78 -86.5q17 -36 17 -83q0 -25 -5 -52 q-20 -121 -133 -193.5t-282 -72.5q-160 0 -251 76q-79 66 -79 166q0 15 2 31z" />
<glyph unicode="t" horiz-adv-x="651" d="M137 978l5 27q3 19 22 19h216l54 309q3 19 22 19h31q22 0 19 -22l-54 -306h213q22 0 19 -22l-5 -28q-3 -18 -22 -18h-217l-164 -937q-3 -19 -22 -19h-31q-22 0 -19 22l164 934h-212q-22 0 -19 22z" />
<glyph unicode="u" horiz-adv-x="1083" d="M113 341l116 664q3 19 22 19h31q22 0 19 -22l-116 -661q-7 -40 -7 -74q0 -87 44 -143q62 -78 187 -78q92 0 176.5 42t150.5 131.5t91 213.5l101 572q3 19 22 19h31q22 0 19 -22l-173 -983q-3 -19 -23 -19h-31q-21 0 -18 22l30 171q-70 -110 -173 -162.5t-216 -52.5 q-147 0 -230 98q-61 72 -61 181q0 40 8 84z" />
<glyph unicode="v" horiz-adv-x="993" d="M129 1002q-1 4 -1 7q0 15 19 15h30q17 0 22 -18l216 -929l545 933q8 14 24 14h36q12 0 16 -7q2 -3 2 -7q0 -5 -3 -11l-578 -985q-8 -14 -25 -14h-33h-17q-18 0 -22 18z" />
<glyph unicode="w" horiz-adv-x="1378" d="M128 1002q-3 22 19 22h31q19 0 22 -19l166 -917l315 585l-61 329q-3 22 18 22h31q19 0 22 -19l165 -918l491 922q7 15 25 15h35q13 0 17 -7q2 -3 1 -7q0 -5 -3 -10l-530 -985q-8 -15 -24 -15h-30h-14q-19 0 -22 19l-102 549l-299 -553q-7 -15 -24 -15h-31h-13 q-19 0 -22 19z" />
<glyph unicode="x" horiz-adv-x="921" d="M-19 7q-1 2 -1 4q0 6 6 14l438 507l-245 468q-5 10 -1 17t16 7h31q17 0 24 -15l222 -423l369 426q10 12 25 12h37q13 0 16 -7q1 -2 1 -4q0 -6 -6 -14l-410 -475l262 -500q5 -10 1 -17t-16 -7h-31q-17 0 -24 15l-239 456l-397 -459q-11 -12 -25 -12h-37q-13 0 -16 7z" />
<glyph unicode="y" horiz-adv-x="962" d="M130 1001q-1 4 -1 7q0 16 19 16h29q19 0 23 -18l225 -911l507 915q7 14 24 14h35q12 0 16 -7q2 -3 2 -6q0 -5 -4 -11l-772 -1395q-7 -15 -24 -15h-35q-12 0 -16.5 7t1.5 18l217 389z" />
<glyph unicode="z" horiz-adv-x="948" d="M23 22l2 10q3 13 11 23l778 901h-583q-22 0 -19 22l5 27q3 19 22 19h668q20 0 20 -15q0 -3 -1 -7l-2 -10q-3 -13 -11 -23l-778 -901h624q22 0 19 -22l-5 -27q-3 -19 -22 -19h-709q-20 0 -20 15q0 3 1 7z" />
<glyph unicode="{" horiz-adv-x="716" d="M150 707l5 28q3 18 22 18q112 2 172.5 50t78.5 156l76 425q53 296 339 276q21 -1 18 -22l-4 -28q-3 -20 -24 -18q-219 16 -257 -208l-76 -425q-20 -111 -70.5 -169.5t-137.5 -75.5q77 -17 109 -78.5t15 -156.5l-75 -427q-20 -114 23.5 -164.5t156.5 -43.5q11 1 16.5 -4.5 t3.5 -16.5l-5 -28q-3 -18 -21 -19q-146 -10 -208 63.5t-38 212.5l74 427q19 107 -23 154.5t-151 50.5q-22 2 -19 23z" />
<glyph unicode="|" horiz-adv-x="454" d="M33 -387l325 1843q3 19 22 19h31q22 0 19 -23l-325 -1843q-3 -19 -22 -19h-31q-22 0 -19 23z" />
<glyph unicode="}" horiz-adv-x="718" d="M-71 -200l5 28q3 19 23 17q219 -16 257 208l76 426q20 111 70.5 169.5t137.5 75.5q-77 17 -108.5 78t-14.5 157l74 427q20 114 -23 164.5t-156 43.5q-11 -1 -16.5 4.5t-3.5 16.5l4 27q3 19 22 20q146 10 208 -63.5t38 -212.5l-75 -427q-19 -107 23.5 -155t151.5 -51 q22 -2 19 -22l-6 -28q-3 -19 -22 -19q-112 -2 -172 -49.5t-78 -155.5l-76 -426q-53 -296 -340 -276q-21 2 -18 23z" />
<glyph unicode="~" horiz-adv-x="1187" d="M166 648q21 42 50 79t74.5 68t97 41t120.5 -11t143 -78q62 -49 118 -67t95.5 -10.5t74.5 33t55.5 52.5t37.5 61q9 18 27 9l26 -12q19 -9 10 -27q-20 -42 -48.5 -78.5t-73.5 -67.5t-96.5 -41t-121 10.5t-144.5 77.5q-63 48 -119.5 66t-96 11t-74 -32.5t-55 -52.5 t-37.5 -61q-10 -19 -28 -10l-25 13q-19 9 -10 27z" />
<glyph unicode="&#xa2;" horiz-adv-x="1185" d="M134 728q40 226 217 374.5t407 148.5q59 0 119 -13l93 184q6 12 20 12h29q10 0 13.5 -6t-1.5 -14l-98 -193q96 -35 160.5 -105.5t83.5 -164.5q5 -23 -18 -23h-33q-17 0 -23 18q-20 76 -72 131t-130 82l-449 -889q60 -19 133 -19q137 0 255.5 65.5t184.5 174.5q8 14 25 14 h32q12 0 16.5 -6.5t-1.5 -17.5q-75 -139 -214.5 -218.5t-309.5 -79.5q-82 0 -154 23l-98 -194q-6 -12 -20 -12h-29q-10 0 -13.5 5.5t1.5 13.5l106 208q-134 64 -198 199t-34 302zM206 719q-25 -144 27 -259t165 -169l447 883q-39 8 -95 8q-199 0 -354 -133t-190 -330z" />
<glyph unicode="&#xa3;" horiz-adv-x="1177" d="M-18 22l5 30q3 19 22 19h197l93 530h-152q-21 0 -18 23l4 26q3 18 22 18h156l69 391q32 183 163 289.5t308 106.5q81 0 150 -27.5t117.5 -77t69.5 -125t5 -166.5l-6 -30q-3 -19 -23 -19h-33q-10 0 -15.5 6t-3.5 14l6 29q25 148 -49 236.5t-226 88.5q-148 0 -255.5 -89.5 t-132.5 -235.5l-69 -391h489q22 0 19 -22l-5 -26q-3 -19 -22 -19h-493l-93 -530h772q22 0 19 -22l-5 -30q-3 -19 -22 -19h-1044q-22 0 -19 22z" />
<glyph unicode="&#xa5;" horiz-adv-x="1157" d="M134 400l4 23q3 19 22 19h368l34 191h-365q-21 0 -18 22l3 23q3 19 23 19h352l-349 712q-5 11 -1 18t16 7h34q17 0 24 -15l332 -680l575 683q10 12 25 12h39q13 0 16.5 -7t-4.5 -18l-599 -712h352q21 0 18 -22l-4 -24q-3 -18 -22 -18h-372l-34 -191h369q22 0 19 -22 l-4 -24q-3 -18 -22 -18h-373l-63 -359q-3 -19 -22 -19h-34q-22 0 -19 22l63 356h-364q-22 0 -19 22z" />
<glyph unicode="&#xa8;" horiz-adv-x="546" d="M164 1210l17 96q3 18 22 18h41q21 0 18 -22l-17 -96q-3 -18 -22 -18h-41q-21 0 -18 22zM546 1210l17 96q3 18 22 18h41q22 0 19 -22l-18 -96q-3 -18 -22 -18h-40q-22 0 -19 22z" />
<glyph unicode="&#xa9;" horiz-adv-x="1701" d="M143 491q-15 111 4 235q35 202 162.5 369.5t315 263.5t392.5 96q119 0 226 -38.5t185 -107t132.5 -162.5t70.5 -205t-3 -235q-36 -202 -164 -369.5t-315.5 -263.5t-392.5 -96q-119 0 -225.5 38.5t-185 107t-133 162.5t-69.5 205zM195 717q-25 -142 6.5 -271t108 -222 t195 -147.5t259.5 -54.5q189 0 365 92.5t296.5 252.5t154.5 350q33 190 -31.5 350t-207.5 252.5t-331 92.5q-189 0 -365 -92.5t-296.5 -252.5t-153.5 -350zM496 724q29 166 161 276t305 110q123 0 210 -68.5t105 -176.5q3 -21 -19 -21h-33q-17 0 -22 18q-18 84 -86.5 132.5 t-166.5 48.5q-142 0 -250 -95t-132 -231t51 -231.5t217 -95.5q99 0 183.5 49.5t132.5 135.5q9 15 24 15h32q12 0 16.5 -6.5t-0.5 -16.5q-57 -110 -163.5 -176.5t-235.5 -66.5q-168 0 -263 117.5t-66 282.5z" />
<glyph unicode="&#xab;" horiz-adv-x="921" d="M211 618q-7 14 4 28l253 316q10 12 25 12h45q13 0 16.5 -7t-4.5 -18l-258 -322l139 -312q10 -23 -16 -23h-41q-17 0 -24 15zM460 618q-7 14 4 28l253 316q11 12 25 12h45q13 0 16.5 -7t-4.5 -18l-258 -322l139 -311q10 -24 -16 -24h-41q-17 0 -24 15z" />
<glyph unicode="&#xad;" d="M211 621l4 27q3 19 22 19h696q22 0 19 -22l-5 -28q-3 -18 -22 -18h-696q-21 0 -18 22z" />
<glyph unicode="&#xae;" horiz-adv-x="1701" d="M143 491q-15 111 4 235q35 202 162.5 369.5t315 263.5t392.5 96q119 0 226 -38.5t185 -107t132.5 -162.5t70.5 -205t-3 -235q-36 -202 -164 -369.5t-315.5 -263.5t-392.5 -96q-119 0 -225.5 38.5t-185 107t-133 162.5t-69.5 205zM195 717q-25 -142 6.5 -271t108 -222 t195 -147.5t259.5 -54.5q189 0 365 92.5t296.5 252.5t154.5 350q33 190 -31.5 350t-207.5 252.5t-331 92.5q-189 0 -365 -92.5t-296.5 -252.5t-153.5 -350zM612 360l126 717q3 19 22 19h51h150q129 0 189 -71.5t44 -164.5q-31 -170 -202 -212l172 -285q7 -11 2.5 -18 t-16.5 -7h-29q-17 0 -25 14l-172 285q-14 -1 -43 -1h-151l-49 -280q-3 -18 -22 -18h-28q-24 0 -19 22zM742 701h153q100 0 157.5 43.5t71.5 121.5q13 72 -31 118t-140 46h-154z" />
<glyph unicode="&#xb4;" horiz-adv-x="327" d="M169.5 1174q3.5 -7 14.5 -7h29q13 0 22 10l192 221q8 8 5 15t-14 7h-44q-13 0 -22 -11l-179 -220q-7 -8 -3.5 -15z" />
<glyph unicode="&#xb8;" horiz-adv-x="460" d="M-121 -403l4 21q3 18 23 16q142 -14 221 10t89 79q8 43 -29 67.5t-117 22.5q-22 0 -19 20l30 167h65l-24 -139q75 -3 122 -41t36 -103q-14 -80 -106.5 -119t-276.5 -23q-21 2 -18 22z" />
<glyph unicode="&#xbb;" horiz-adv-x="923" d="M160.5 298.5q-3.5 7.5 4.5 18.5l258 322l-139 311q-10 24 16 24h41q17 0 24 -15l139 -311q7 -14 -4 -28l-253 -316q-11 -13 -25 -13h-45q-13 0 -16.5 7.5zM409.5 298.5q-3.5 7.5 4.5 18.5l258 322l-139 311q-10 24 15 24h42q17 0 24 -15l138 -311q7 -15 -3 -28l-253 -316 q-11 -13 -25 -13h-45q-13 0 -16.5 7.5z" />
<glyph unicode="&#xc7;" horiz-adv-x="1583" d="M147 726q36 203 157.5 369t307 263t398.5 97q215 0 377 -117.5t203 -304.5q5 -23 -19 -23h-38q-17 0 -22 18q-41 161 -178 258.5t-329 97.5q-144 0 -278.5 -52.5t-237 -142.5t-173 -212.5t-94.5 -259.5q-25 -137 3 -260t99 -213t186.5 -142.5t259.5 -52.5q191 0 364 99 t270 261q8 14 24 14h38q12 0 17 -6.5t-1 -16.5q-104 -182 -288.5 -296.5t-399.5 -124.5l-21 -118q75 -3 122.5 -41.5t36.5 -102.5q-14 -80 -106.5 -119t-276.5 -23q-21 2 -18 22l4 21q3 17 22 16q142 -14 221 10t89 79q8 43 -29 67.5t-117 22.5q-21 0 -18 20l26 146 q-201 7 -347 109.5t-207.5 271t-26.5 366.5z" />
<glyph unicode="&#xcb;" horiz-adv-x="1064" d="M105 22l245 1393q3 19 22 19h56h670q22 0 19 -23l-5 -29q-3 -18 -22 -18h-674l-107 -606h620q22 0 19 -23l-6 -28q-3 -19 -21 -19h-624l-109 -618h681q22 0 19 -23l-6 -28q-3 -19 -21 -19h-726h-11q-22 0 -19 22zM530 1620l18 95q3 19 22 19h40q22 0 19 -22l-17 -96 q-3 -19 -23 -19h-40q-22 0 -19 23zM913 1620l17 95q3 19 22 19h41q21 0 18 -22l-17 -96q-3 -19 -22 -19h-41q-21 0 -18 23z" />
<glyph unicode="&#xe7;" horiz-adv-x="1185" d="M98 524q40 226 217 374t408 148q162 0 277 -83t142 -217q5 -22 -19 -22h-33q-17 0 -23 17q-28 109 -120.5 173t-231.5 64q-199 0 -354 -133t-190 -330q-23 -129 17 -236.5t135.5 -170t226.5 -62.5q137 0 255.5 66t184.5 175q8 13 24 13h32q12 0 16.5 -7t-1.5 -17 q-70 -130 -197.5 -209t-285.5 -88l-21 -118q75 -3 122 -41t36 -103q-14 -80 -106 -119t-276 -23q-21 2 -18 22l4 21q3 17 22 16q142 -14 221 10t89 79q8 43 -29 67.5t-117 22.5q-21 0 -18 20l26 146q-215 10 -334.5 167.5t-80.5 377.5z" />
<glyph unicode="&#xeb;" horiz-adv-x="1179" d="M97 522q40 229 206 376.5t395 147.5q88 0 163 -29t125 -79.5t84 -119t40.5 -147t-5.5 -163.5q-1 -3 -2 -8.5t-2 -8.5q-5 -18 -22 -18h-52h-864q-20 -191 82.5 -309t288.5 -118q130 0 238 57.5t167 152.5q9 14 25 14h35q12 0 17 -6.5t0 -15.5q-71 -125 -201.5 -197.5 t-292.5 -72.5q-146 0 -253 71t-153 196t-19 277zM174 541h864q22 199 -75.5 318t-271.5 119q-190 0 -332.5 -121.5t-184.5 -315.5zM499 1210l17 96q3 18 22 18h41q21 0 18 -22l-17 -96q-3 -18 -22 -18h-41q-21 0 -18 22zM881 1210l17 96q3 18 23 18h40q22 0 19 -22l-18 -96 q-3 -18 -22 -18h-40q-22 0 -19 22z" />
<glyph unicode="&#x2c6;" horiz-adv-x="616" d="M172.5 1174q-2.5 7 5.5 15l238 222q10 9 22 9h39h18q13 0 21 -11l159 -220q6 -9 2.5 -15.5t-14.5 -6.5h-37q-14 0 -21 12l-142 196l-212 -199q-9 -9 -22 -9h-42q-12 0 -14.5 7z" />
<glyph unicode="&#x2da;" horiz-adv-x="487" d="M186 1333q14 83 79 136t156 53q88 0 135.5 -55t33.5 -138t-79 -136t-157 -53q-87 0 -134.5 55.5t-33.5 137.5zM248 1331q-11 -60 21.5 -97t95.5 -37q64 0 108.5 37t55.5 97q10 60 -21.5 97.5t-95.5 37.5q-63 0 -108.5 -37.5t-55.5 -97.5z" />
<glyph unicode="&#x2dc;" horiz-adv-x="622" d="M167 1223q20 94 68 141.5t108.5 37.5t117.5 -76q72 -83 130 -68.5t80 116.5q4 17 21 17h24q22 0 17 -21q-20 -93 -68 -140.5t-109 -38t-118 74.5q-74 85 -130.5 70.5t-78.5 -117.5q-4 -17 -21 -17h-24q-22 0 -17 21z" />
<glyph unicode="&#x2000;" horiz-adv-x="867" />
<glyph unicode="&#x2001;" horiz-adv-x="1734" />
<glyph unicode="&#x2002;" horiz-adv-x="867" />
<glyph unicode="&#x2003;" horiz-adv-x="1734" />
<glyph unicode="&#x2004;" horiz-adv-x="578" />
<glyph unicode="&#x2005;" horiz-adv-x="433" />
<glyph unicode="&#x2006;" horiz-adv-x="289" />
<glyph unicode="&#x2007;" horiz-adv-x="289" />
<glyph unicode="&#x2008;" horiz-adv-x="216" />
<glyph unicode="&#x2009;" horiz-adv-x="346" />
<glyph unicode="&#x200a;" horiz-adv-x="96" />
<glyph unicode="&#x2010;" d="M211 621l4 27q3 19 22 19h696q22 0 19 -22l-5 -28q-3 -18 -22 -18h-696q-21 0 -18 22z" />
<glyph unicode="&#x2011;" d="M211 621l4 27q3 19 22 19h696q22 0 19 -22l-5 -28q-3 -18 -22 -18h-696q-21 0 -18 22z" />
<glyph unicode="&#x2012;" d="M211 621l4 27q3 19 22 19h696q22 0 19 -22l-5 -28q-3 -18 -22 -18h-696q-21 0 -18 22z" />
<glyph unicode="&#x2013;" horiz-adv-x="1394" d="M211 621l4 27q3 19 22 19h971q22 0 19 -22l-5 -28q-3 -18 -22 -18h-971q-21 0 -18 22z" />
<glyph unicode="&#x2014;" horiz-adv-x="1599" d="M211 621l4 27q3 19 22 19h1176q22 0 19 -22l-5 -28q-3 -18 -22 -18h-1176q-21 0 -18 22z" />
<glyph unicode="&#x2018;" horiz-adv-x="432" d="M256 1073l31 176q27 153 126 188q11 4 17 -1t4 -15l-2 -13q-3 -15 -17 -22q-26 -14 -41.5 -45t-27.5 -92h8q21 0 18 -23l-28 -157q-3 -18 -22 -18h-48q-21 0 -18 22z" />
<glyph unicode="&#x2019;" horiz-adv-x="432" d="M254 1063l3 13q3 15 17 22q26 14 41.5 45.5t27.5 92.5h-8q-21 0 -18 22l28 157q3 19 22 19h47q22 0 19 -23l-32 -175q-14 -80 -44 -125.5t-81 -63.5q-11 -4 -17.5 1t-4.5 15z" />
<glyph unicode="&#x201a;" horiz-adv-x="432" d="M26 -227l3 13q3 15 17 22q26 14 41.5 45t27.5 92h-8q-21 0 -18 23l28 157q3 18 22 18h47q22 0 19 -22l-32 -176q-14 -80 -44 -125t-81 -63q-11 -4 -17.5 1t-4.5 15z" />
<glyph unicode="&#x201c;" horiz-adv-x="663" d="M256 1073l31 176q27 153 126 188q11 4 17 -1t4 -15l-2 -13q-3 -15 -17 -22q-26 -14 -41.5 -45t-27.5 -92h8q21 0 18 -23l-28 -157q-3 -18 -22 -18h-48q-21 0 -18 22zM488 1073l32 176q14 80 44 125t81 63q11 4 17.5 -1t4.5 -15l-3 -13q-3 -15 -17 -22q-26 -14 -41.5 -45 t-27.5 -92h8q21 0 18 -23l-28 -157q-3 -18 -22 -18h-47q-22 0 -19 22z" />
<glyph unicode="&#x201d;" horiz-adv-x="663" d="M254 1063l3 13q3 15 17 22q26 14 41.5 45.5t27.5 92.5h-8q-21 0 -18 22l28 157q3 19 22 19h47q22 0 19 -23l-32 -175q-14 -80 -44 -125.5t-81 -63.5q-11 -4 -17.5 1t-4.5 15zM486 1063l3 13q3 15 17 22q26 14 41.5 45.5t27.5 92.5h-8q-21 0 -18 22l28 157q3 19 22 19h47 q22 0 19 -23l-32 -175q-14 -80 -44 -125.5t-81 -63.5q-11 -4 -17.5 1t-4.5 15z" />
<glyph unicode="&#x201e;" horiz-adv-x="663" d="M26 -227l3 13q3 15 17 22q26 14 41.5 45t27.5 92h-8q-21 0 -18 23l28 157q3 18 22 18h47q22 0 19 -22l-32 -176q-14 -80 -44 -125t-81 -63q-11 -4 -17.5 1t-4.5 15zM258 -227l3 13q3 15 17 22q26 14 41.5 45t27.5 92h-8q-21 0 -18 23l28 157q3 18 22 18h47q22 0 19 -22 l-32 -176q-14 -80 -44 -125t-81 -63q-11 -4 -17.5 1t-4.5 15z" />
<glyph unicode="&#x2022;" horiz-adv-x="532" d="M154 724q11 62 61 102.5t115 40.5q62 0 98 -45.5t25 -108.5t-61 -104.5t-114 -41.5q-63 0 -99 46.5t-25 110.5z" />
<glyph unicode="&#x2026;" horiz-adv-x="1181" d="M71 22l18 103q3 18 23 18h47q24 0 19 -22l-19 -103q-3 -18 -22 -18h-48q-21 0 -18 22zM460 22l19 103q3 18 22 18h47q24 0 19 -22l-19 -103q-3 -18 -22 -18h-47q-22 0 -19 22zM849 22l19 103q3 18 22 18h47q24 0 19 -22l-19 -103q-3 -18 -22 -18h-47q-22 0 -19 22z" />
<glyph unicode="&#x202f;" horiz-adv-x="346" />
<glyph unicode="&#x2039;" horiz-adv-x="671" d="M211 618q-7 14 4 28l253 316q10 12 25 12h45q13 0 16.5 -7t-4.5 -18l-258 -322l139 -312q10 -23 -16 -23h-41q-17 0 -24 15z" />
<glyph unicode="&#x203a;" horiz-adv-x="673" d="M160.5 298.5q-3.5 7.5 4.5 18.5l258 322l-139 311q-10 24 16 24h41q17 0 24 -15l139 -311q7 -14 -4 -28l-253 -316q-11 -13 -25 -13h-45q-13 0 -16.5 7.5z" />
<glyph unicode="&#x205f;" horiz-adv-x="433" />
<glyph unicode="&#x20ac;" horiz-adv-x="1271" d="M32 575l4 24q3 18 22 18h154q3 36 15 107q8 48 21 98h-150q-22 0 -19 22l4 24q3 18 22 18h160q79 266 240.5 417.5t378.5 151.5q182 0 287.5 -115t111.5 -313q0 -21 -20 -21h-34q-18 0 -20 21q-7 171 -94.5 264t-239.5 93q-180 0 -319.5 -131t-213.5 -367h554 q22 0 19 -22l-4 -23q-3 -19 -22 -19h-565q-12 -46 -22 -105q-10 -56 -14 -100h561q22 0 19 -22l-4 -23q-3 -19 -22 -19h-559q-12 -240 81 -372t274 -132q154 0 276.5 96t187.5 271q6 17 23 17h33q11 0 16 -6.5t1 -17.5q-72 -203 -215 -317t-334 -114q-211 0 -321 155 t-98 420h-157q-21 0 -18 22z" />
<glyph unicode="&#x2122;" horiz-adv-x="1009" d="M279 1397l4 24q2 13 14 13h164h109q14 0 12 -15l-4 -24q-2 -13 -14 -13h-112l-61 -346q-1 -12 -14 -12h-27q-16 0 -13 15l60 343h-106q-14 0 -12 15zM577 1039l67 382q2 13 14 13h28h18q13 0 16 -12l78 -247l169 250q6 9 16 9h29h21q15 0 12 -15l-67 -383q-2 -12 -14 -12 h-27q-16 0 -13 15l56 316l-158 -233q-6 -9 -16 -9h-29q-12 0 -15 11l-75 232l-56 -320q-1 -12 -15 -12h-27q-15 0 -12 15z" />
<glyph unicode="&#x25fc;" horiz-adv-x="1024" d="M0 0v1024h1024v-1024h-1024z" />
</font>
</defs>
</svg>
